<svg width="269" height="388" viewBox="0 0 269 388" fill="none" xmlns="http://www.w3.org/2000/svg">
<path d="M119.49 349.737C117.798 335.074 117.234 319.847 114.978 305.749C111.03 282.063 99.7515 263.452 78.3214 251.609C60.275 242.022 42.2286 233.563 23.6182 224.54C17.9787 221.72 11.7753 219.464 6.13578 216.645C1.62418 214.389 -1.19557 210.441 0.496276 205.366C1.62418 201.982 5.57183 199.726 8.39158 196.906C8.95553 196.342 10.0834 196.342 11.2113 196.342C55.7634 187.319 85.6528 158.558 105.955 120.209C124.001 86.936 138.664 51.9711 155.019 18.1341C157.274 13.0585 159.53 7.98295 162.35 4.0353C164.042 1.7795 168.553 -0.476302 171.373 0.0876478C174.193 0.651598 177.577 4.0353 178.141 7.419C179.268 10.8027 178.705 15.3143 178.141 19.262C177.013 27.1573 175.885 35.0526 174.193 43.5118C167.426 76.7849 174.193 108.93 180.96 141.075C184.344 155.174 192.803 165.325 205.21 172.092C221.001 180.552 237.355 186.191 254.838 190.139C260.477 191.267 268.373 191.267 268.937 199.726C269.5 208.749 261.605 211.005 255.402 212.697C228.332 219.464 209.158 237.511 191.675 258.377C173.629 279.807 159.53 304.057 150.507 330.562C145.431 345.225 140.92 359.888 135.844 373.987C134.716 376.806 134.716 379.626 133.025 381.318C130.769 384.138 126.821 388.085 124.565 387.521C121.746 386.957 119.49 382.446 117.798 379.062C116.67 376.806 117.234 373.987 117.234 371.167C117.234 363.836 117.234 356.504 117.234 349.737C118.362 349.737 118.926 349.737 119.49 349.737Z" fill="black"/>
</svg>
